<?xml version="1.0" encoding="utf-8"?>
<!-- Generator: Adobe Illustrator 19.0.1, SVG Export Plug-In . SVG Version: 6.00 Build 0)  -->
<svg version="1.1" id="Слой_1" xmlns="http://www.w3.org/2000/svg" xmlns:xlink="http://www.w3.org/1999/xlink" x="0px" y="0px"
	 viewBox="-281 370 48 53" style="enable-background:new -281 370 48 53;" xml:space="preserve">
<style type="text/css">
	.st0{fill:none;}
	.st1{fill:#FFFFFF;}
	.st2{fill:#FFDA44;}
</style>
<title>calendar-icon</title>
<path class="st0" d="M-278.9,418.6c0,1.4,1.2,2.6,2.6,2.6h38.6c1.4,0,2.6-1.2,2.6-2.6V389h-43.7L-278.9,418.6L-278.9,418.6z
	 M-251,398.4h3.5v3.5h-3.5V398.4z M-251,406.4h3.5v3.5h-3.5V406.4L-251,406.4z M-258.9,398.4h3.5v3.5h-3.5V398.4z M-258.9,406.4h3.5
	v3.5h-3.5V406.4L-258.9,406.4z M-266.8,398.4h3.5v3.5h-3.5V398.4z M-266.8,406.4h3.5v3.5h-3.5V406.4L-266.8,406.4z"/>
<path class="st1" d="M-237.7,375.6h-7.6V370h-1.8v5.6h-5.1v1.8h5.1v5h1.8v-5h7.6c1.4,0,2.6,1.2,2.6,2.6v7.1h-43.7V380
	c0-1.4,1.2-2.6,2.6-2.6h7.5v5h1.8V370h-1.8v5.6h-7.5c-2.4,0-4.4,2-4.4,4.4v38.6c0,2.4,2,4.4,4.4,4.4h38.6c2.4,0,4.4-2,4.4-4.4V380
	C-233.3,377.6-235.3,375.6-237.7,375.6C-237.7,375.6-237.7,375.6-237.7,375.6z M-235.1,418.6c0,1.4-1.2,2.6-2.6,2.6h-38.6
	c-1.4,0-2.6-1.2-2.6-2.6V389h43.7L-235.1,418.6L-235.1,418.6z"/>
<polygon class="st1" points="-257.9,382.4 -256.1,382.4 -256.1,370 -257.9,370 -257.9,375.6 -263.2,375.6 -263.2,377.4 
	-257.9,377.4 "/>
<rect x="-266.8" y="398.4" class="st2" width="3.5" height="3.5"/>
<rect x="-258.9" y="398.4" class="st2" width="3.5" height="3.5"/>
<rect x="-251" y="398.4" class="st2" width="3.5" height="3.5"/>
<rect x="-251" y="406.3" class="st2" width="3.5" height="3.5"/>
<rect x="-258.9" y="406.3" class="st2" width="3.5" height="3.5"/>
<rect x="-266.8" y="406.3" class="st2" width="3.5" height="3.5"/>
</svg>
