<?xml version="1.0" encoding="utf-8"?>
<!-- Generator: Adobe Illustrator 19.0.1, SVG Export Plug-In . SVG Version: 6.00 Build 0)  -->
<svg version="1.1" id="Слой_1" xmlns="http://www.w3.org/2000/svg" xmlns:xlink="http://www.w3.org/1999/xlink" x="0px" y="0px"
	 viewBox="-276 371 59 52" style="enable-background:new -276 371 59 52;" xml:space="preserve">
<style type="text/css">
	.st0{fill:none;}
	.st1{fill:#FFDA44;}
	.st2{fill:#FFFFFF;}
</style>
<title>car-icon</title>
<circle class="st0" cx="-261.5" cy="407" r="3.3"/>
<path class="st0" d="M-235.1,382c0.4,0.4,1,0.4,1.4,0l4.3-4.2c0.5-0.3,0.6-0.9,0.3-1.4c-0.3-0.5-0.9-0.6-1.4-0.3
	c-0.1,0.1-0.2,0.2-0.3,0.3l-3.6,3.5l-1.8-1.8c-0.5-0.3-1.1-0.2-1.4,0.3c-0.2,0.3-0.2,0.8,0,1.1L-235.1,382z"/>
<circle class="st0" cx="-230.7" cy="407" r="3.3"/>
<path class="st0" d="M-229.2,421.3h5.9c0.3,0,0.6-0.1,0.9-0.3c0.3-0.4,0.4-0.8,0.4-1.3v-19.3c-0.1-1-0.4-1.9-1.1-2.6h-46.6
	c-0.7,0.7-1,1.7-1.1,2.6v19.3c0,0.5,0.1,0.9,0.4,1.3c0.2,0.2,0.5,0.3,0.9,0.3h5.9c1.2-0.2,2.1-1.2,2.3-2.4v-3.8h30v3.8
	C-231.4,420.2-230.4,421.1-229.2,421.3z M-261.5,411.8c-2.7,0-4.8-2.2-4.8-4.8c0-2.7,2.2-4.8,4.8-4.8c2.7,0,4.8,2.2,4.8,4.8l0,0
	C-256.7,409.7-258.9,411.8-261.5,411.8L-261.5,411.8z M-235.5,407c0-2.7,2.2-4.8,4.8-4.8c2.7,0,4.8,2.2,4.8,4.8
	c0,2.7-2.2,4.8-4.8,4.8c0,0,0,0,0,0C-233.3,411.8-235.5,409.7-235.5,407L-235.5,407z"/>
<path class="st1" d="M-233.4,387.5c4.5,0,8.2-3.7,8.2-8.2s-3.7-8.2-8.2-8.2c-4.5,0-8.2,3.7-8.2,8.2l0,0
	C-241.6,383.8-238,387.4-233.4,387.5z M-237.6,378.1c0.4-0.4,1-0.4,1.4,0l1.8,1.8l3.6-3.5c0.3-0.5,0.9-0.6,1.4-0.3s0.6,0.9,0.3,1.4
	c-0.1,0.1-0.2,0.2-0.3,0.3l-4.3,4.2c-0.4,0.4-1,0.4-1.4,0l-2.4-2.4C-237.9,379.2-237.9,378.6-237.6,378.1L-237.6,378.1z"/>
<path class="st2" d="M-225.8,407c0-2.7-2.2-4.8-4.8-4.8c-2.7,0-4.8,2.2-4.8,4.8c0,2.7,2.2,4.8,4.8,4.8c0,0,0,0,0,0
	C-228,411.8-225.8,409.7-225.8,407z M-234,407c0-1.8,1.5-3.3,3.3-3.3s3.3,1.5,3.3,3.3c0,1.8-1.5,3.3-3.3,3.3h0
	C-232.5,410.3-234,408.9-234,407z"/>
<path class="st2" d="M-261.5,402.2c-2.7,0-4.8,2.2-4.8,4.8c0,2.7,2.2,4.8,4.8,4.8c2.7,0,4.8-2.2,4.8-4.8l0,0
	C-256.7,404.4-258.9,402.2-261.5,402.2z M-261.5,410.3c-1.8,0-3.3-1.5-3.3-3.3c0-1.8,1.5-3.3,3.3-3.3c1.8,0,3.3,1.5,3.3,3.3l0,0
	C-258.2,408.9-259.7,410.3-261.5,410.3L-261.5,410.3z"/>
<path class="st2" d="M-221.6,393.8c1.6,0,4.5-0.8,4.5-3.9c0-3.1-2.9-4-4.5-4.2h-4.1v1.7h4c0.1,0,2.8,0.3,2.8,2.4
	c0,2.2-2.8,2.2-2.8,2.2h-3.3v3.9l0.1,0.1h-43.2l0.1-0.1v-3.9h-3.4c-0.1,0-2.8,0-2.8-2.2c0-2.2,2.5-2.4,2.8-2.4h6.5v-2
	c0.1-2,1-4,2.5-5.3c5.2-4.5,16.7-3.5,16.8-3.5h0.3l0.2-1.7h-0.3c-0.5,0-12.3-1.2-18.1,3.9c-1.9,1.6-3.1,4-3.1,6.5v0.4h-4.9
	c-1.5,0.1-4.4,1.1-4.4,4.2s3,3.9,4.5,3.9h1.7v1.4c-0.8,0.7-2.9,2.8-2.9,5.2v19.3c0,0.9,0.3,1.8,0.9,2.5c0.5,0.6,1.3,0.9,2.1,0.8h5.9
	c2.1-0.2,3.8-1.9,4-4.1v-2.1h26.6v2.1c0.2,2.1,1.8,3.9,4,4.1h5.9c0.8,0,1.5-0.3,2.1-0.8c0.6-0.7,0.9-1.6,0.9-2.5v-19.3
	c0-2.4-2.1-4.5-2.9-5.2v-1.4L-221.6,393.8L-221.6,393.8z M-261.5,415.1v3.8c-0.2,1.2-1.1,2.2-2.3,2.4h-5.9c-0.3,0-0.6-0.1-0.9-0.3
	c-0.3-0.4-0.4-0.8-0.4-1.3v-19.3c0.1-1,0.5-1.9,1.1-2.6h46.7c0.6,0.7,1,1.7,1.1,2.6v19.3c0,0.5-0.1,0.9-0.4,1.3
	c-0.2,0.2-0.5,0.3-0.9,0.3h-5.9c-1.2-0.2-2.1-1.2-2.3-2.4v-3.8L-261.5,415.1L-261.5,415.1z"/>
</svg>
