<?xml version="1.0" encoding="utf-8"?>
<!-- Generator: Adobe Illustrator 19.0.1, SVG Export Plug-In . SVG Version: 6.00 Build 0)  -->
<svg version="1.1" id="Слой_1" xmlns="http://www.w3.org/2000/svg" xmlns:xlink="http://www.w3.org/1999/xlink" x="0px" y="0px"
	 viewBox="-277 371 56 51" style="enable-background:new -277 371 56 51;" xml:space="preserve">
<style type="text/css">
	.st0{fill:none;}
	.st1{fill:#FFDA44;}
	.st2{fill:#FFFFFF;}
</style>
<title>case-icon</title>
<path class="st0" d="M-229.4,415.9v3.9h3.9c1.5,0,2.8-1.3,2.8-2.8v0v-3.9h-3.9C-228.2,413.1-229.4,414.3-229.4,415.9L-229.4,415.9z"
	/>
<path class="st0" d="M-271.3,413.1h-3.9v3.9c0,1.5,1.3,2.8,2.8,2.8l0,0h3.9v-3.9C-268.5,414.3-269.8,413.1-271.3,413.1L-271.3,413.1
	z"/>
<rect x="-266.8" y="417.9" class="st0" width="35.7" height="1.9"/>
<rect x="-275.3" y="389.5" class="st0" width="1.9" height="21.9"/>
<polygon class="st0" points="-242.1,376.9 -242.1,375.1 -242.1,373.2 -255.9,373.2 -255.9,375.1 -255.9,376.9 -255.9,379.3 
	-242.1,379.3 "/>
<path class="st0" d="M-268.5,385v-3.9h-3.9c-1.5,0-2.8,1.3-2.8,2.8v0v3.9h4C-269.8,387.8-268.5,386.5-268.5,385
	C-268.5,385-268.5,385-268.5,385z"/>
<path class="st0" d="M-225.5,381.1h-3.9v3.9c0,1.5,1.3,2.8,2.8,2.8l0,0h3.9v-3.9C-222.7,382.3-224,381.1-225.5,381.1L-225.5,381.1z"
	/>
<path class="st0" d="M-224.6,404.9c0.1,0.5-0.3,0.9-0.7,1c-0.5,0.1-0.9-0.3-1-0.7c0-0.1,0-0.1,0-0.2v-15.4h-0.3
	c-2.5,0-4.5-2-4.5-4.5v0v-0.3h-29.2c-0.5-0.1-0.8-0.5-0.7-1c0.1-0.4,0.4-0.7,0.7-0.7h29.2v-1.9h-35.7v1.9h2.8c0.5-0.1,0.9,0.3,1,0.7
	c0.1,0.5-0.3,0.9-0.7,1c-0.1,0-0.1,0-0.2,0h-2.8v0.3c0,2.5-2,4.5-4.5,4.5l0,0h-0.3v21.9h0.3c2.5,0,4.5,2,4.5,4.5l0,0v0.3h35.7v-0.3
	c0-2.5,2-4.5,4.5-4.5l0,0h0.3v-2.8c-0.1-0.5,0.3-0.9,0.7-1c0.5-0.1,0.9,0.3,1,0.7c0,0.1,0,0.1,0,0.2v2.8h1.9v-21.9h-2V404.9
	L-224.6,404.9z M-264,399.1h13.1c0.5-0.1,1,0.3,1.1,0.8c0.1,0.5-0.3,1-0.8,1.1c-0.1,0-0.2,0-0.2,0H-264c-0.5-0.1-0.9-0.5-0.8-1.1
	C-264.8,399.5-264.4,399.1-264,399.1z M-240.9,406H-264c-0.5-0.1-0.9-0.5-0.8-1.1c0.1-0.4,0.4-0.8,0.8-0.8h23.2c0.5,0,1,0.3,1,0.9
	c0,0.5-0.3,1-0.9,1C-240.8,406-240.8,406-240.9,406L-240.9,406z"/>
<path class="st1" d="M-264,401h13.1c0.5,0.1,1-0.3,1.1-0.8c0.1-0.5-0.3-1-0.8-1.1c-0.1,0-0.2,0-0.2,0H-264c-0.5,0.1-0.9,0.5-0.8,1.1
	C-264.8,400.6-264.4,400.9-264,401z"/>
<path class="st1" d="M-240.9,404.1H-264c-0.5,0.1-0.9,0.5-0.8,1.1c0.1,0.4,0.4,0.8,0.8,0.8h23.2c0.5,0,1-0.3,1-0.9
	c0-0.5-0.3-1-0.9-1C-240.8,404.1-240.8,404.1-240.9,404.1z"/>
<path class="st2" d="M-225.5,379.3h-14.9v-7c0-0.5-0.4-0.9-0.9-0.9h-15.4c-0.5,0-0.9,0.4-0.9,0.9v7h-14.9c-2.5,0-4.5,2-4.5,4.5v0
	V417c0,2.5,2,4.5,4.5,4.5l0,0h47c2.5,0,4.5-2,4.5-4.5v0v-33.2C-221,381.3-223,379.3-225.5,379.3z M-255.9,376.9v-3.7h13.7v6.1h-13.7
	L-255.9,376.9L-255.9,376.9z M-275.3,383.8c0-1.5,1.3-2.8,2.8-2.8h3.9v3.9c0,1.5-1.3,2.8-2.8,2.8l0,0h-3.9V383.8L-275.3,383.8z
	 M-275.3,389.5h1.9v21.9h-1.9V389.5z M-268.5,419.8h-3.9c-1.5,0-2.8-1.3-2.8-2.8v0v-3.9h4c1.5,0,2.8,1.3,2.8,2.8v0L-268.5,419.8
	L-268.5,419.8z M-231.2,419.8h-35.7v-1.9h35.7L-231.2,419.8L-231.2,419.8z M-222.7,417c0,1.5-1.3,2.8-2.8,2.8l0,0h-3.9v-3.9
	c0-1.5,1.3-2.8,2.8-2.8l0,0h3.9V417z M-222.7,411.4h-1.9v-2.8c0.1-0.5-0.3-0.9-0.7-1c-0.5-0.1-0.9,0.3-1,0.7c0,0.1,0,0.1,0,0.2v2.8
	h-0.3c-2.5,0-4.5,2-4.5,4.5v0v0.3h-35.7v-0.3c0-2.5-2-4.5-4.5-4.5l0,0h-0.3v-21.9h0.3c2.5,0,4.5-2,4.5-4.5v0v-0.3h2.8
	c0.5,0.1,0.9-0.3,1-0.7c0.1-0.5-0.3-0.9-0.7-1c-0.1,0-0.1,0-0.2,0h-2.8v-1.9h35.7v1.9h-29.2c-0.5,0.1-0.8,0.5-0.7,1
	c0.1,0.4,0.4,0.7,0.7,0.7h29.2v0.3c0,2.5,2,4.5,4.5,4.5l0,0h0.3v15.4c-0.1,0.5,0.3,0.9,0.7,1c0.5,0.1,0.9-0.3,1-0.7
	c0-0.1,0-0.1,0-0.2v-15.5h1.9L-222.7,411.4L-222.7,411.4z M-222.7,387.8h-3.9c-1.5,0-2.8-1.3-2.8-2.8v0v-3.9h3.9
	c1.5,0,2.8,1.3,2.8,2.8v0V387.8L-222.7,387.8z"/>
</svg>
