<?xml version="1.0" encoding="utf-8"?>
<!-- Generator: Adobe Illustrator 19.0.1, SVG Export Plug-In . SVG Version: 6.00 Build 0)  -->
<svg version="1.1" id="Слой_1" xmlns="http://www.w3.org/2000/svg" xmlns:xlink="http://www.w3.org/1999/xlink" x="0px" y="0px"
	 viewBox="-270 374 71 46" style="enable-background:new -270 374 71 46;" xml:space="preserve">
<style type="text/css">
	.st0{fill:#FFDA44;}
	.st1{fill:#FFFFFF;}
	.st2{fill:none;stroke:#FFFFFF;stroke-width:1.2;stroke-miterlimit:10;}
</style>
<title>credit-icon</title>
<circle class="st0" cx="-259.6" cy="406.6" r="2.8"/>
<circle class="st0" cx="-254.6" cy="406.6" r="2.8"/>
<path class="st1" d="M-201.7,384.4c-0.8-1.9-16.3-8.6-29.9-8.7c-5.5,0-12.5,1.1-14.8,6.6l-1.6-0.7c2.1-5,7.8-7.7,16.4-7.6
	c13,0.1,30.1,6.5,31.5,9.8L-201.7,384.4z"/>
<path class="st2" d="M-224,400.7"/>
<path class="st1" d="M-227.9,415.9h-37.9c-1.7,0-3-1.4-3-3v-28.4c0-1.7,1.4-3,3-3h39.6c1.7,0,3,1.4,3,3v4h-1.7v-4
	c0-0.7-0.6-1.3-1.3-1.3l0,0h-39.6c-0.7,0-1.3,0.6-1.3,1.3l0,0v28.4c0,0.7,0.6,1.3,1.3,1.3l0,0h37.9L-227.9,415.9L-227.9,415.9z"/>
<path class="st2" d="M-224,412.9"/>
<polygon class="st1" points="-223.2,412.2 -224.9,412.2 -223.2,412.2 "/>
<rect x="-224.9" y="411.5" class="st1" width="1.7" height="0.4"/>
<rect x="-224.9" y="400.7" class="st1" width="1.7" height="10.9"/>
<path class="st2" d="M-224.4,390.6"/>
<rect x="-235.7" y="389.8" class="st1" width="0.5" height="1.7"/>
<rect x="-236" y="389.8" class="st1" width="0.3" height="1.7"/>
<rect x="-267.7" y="389.8" class="st1" width="31.7" height="1.7"/>
<path class="st2" d="M-224.4,397.6"/>
<rect x="-267.7" y="396.8" class="st1" width="26" height="1.7"/>
<path class="st2" d="M-216.4,386.9"/>
<path class="st1" d="M-232.4,420c-1.2,0-4-0.5-4-4.9h1.7c0,2.9,1.3,3.2,2.3,3.2s1.9-0.9,3-2.7c2-2.3,4.4-4.2,7-5.7
	c3.7-2,7.9-3.2,12.1-3.3c-3.1-1.3-6-3.2-8.6-5.5c-2.9,0.5-12.9,1.8-14.8,1.8c-5.6-0.2-8.9-2.4-9.2-6.1c-0.3-4,4.5-6,7.4-6.9l0.5,1.6
	c-1.9,0.6-6.4,2.2-6.2,5.1c0.3,3.8,5.4,4.4,7.6,4.5c1.8,0,12.7-1.4,14.9-1.8l0.5-0.1l0.3,0.4c3.8,3.5,8.5,5.9,13.5,6.9
	c1.1,0,1.7,0.1,1.9,0.1l-0.1,1.7c-0.6,0-1.2-0.1-1.8-0.1c-3.5-0.2-11.7-0.2-17.1,3.1c-2.4,1.4-4.5,3.1-6.4,5.1
	C-228.6,417.4-230.1,420-232.4,420z"/>
<path class="st1" d="M-235,391.5l-0.5-1.6c1-0.3,1.6-0.4,1.6-0.4l16.7-3.4l0.3,1.7l-16.8,3.4C-233.5,391.1-234.2,391.2-235,391.5z"
	/>
</svg>
