<?xml version="1.0" encoding="utf-8"?>
<!-- Generator: Adobe Illustrator 19.0.1, SVG Export Plug-In . SVG Version: 6.00 Build 0)  -->
<svg version="1.1" id="Слой_1" xmlns="http://www.w3.org/2000/svg" xmlns:xlink="http://www.w3.org/1999/xlink" x="0px" y="0px"
	 viewBox="-284 366 42 61" style="enable-background:new -284 366 42 61;" xml:space="preserve">
<style type="text/css">
	.st0{fill:none;}
	.st1{fill:#FFDA44;}
	.st2{fill:#FFFFFF;}
</style>
<title>phone-icon</title>
<path class="st0" d="M-282.2,420.9c0,2.1,1.7,3.9,3.9,3.9h23c2.1,0,3.9-1.7,3.9-3.9v-5.8h-30.7V420.9z M-266.9,418
	c1.1,0,1.9,0.9,1.9,1.9s-0.9,1.9-1.9,1.9c-1.1,0-1.9-0.9-1.9-1.9l0,0C-268.8,418.9-267.9,418-266.9,418z"/>
<circle class="st0" cx="-250.6" cy="392" r="3.4"/>
<path class="st0" d="M-251.5,372.1c0-2.1-1.7-3.9-3.9-3.9h-23c-2.1,0-3.9,1.7-3.9,3.9v5.8h30.7V372.1L-251.5,372.1z"/>
<path class="st1" d="M-242,391c-0.1-0.3-0.3-0.4-0.5-0.4c-1.1,0-1.9-0.8-1.9-1.9c0-0.5,0.2-1.1,0.6-1.4c0.2-0.2,0.2-0.5,0-0.7
	c-0.4-0.5-0.9-1-1.4-1.4c-0.2-0.2-0.5-0.2-0.7,0c-0.6,0.6-1.4,0.8-2.1,0.5c-0.7-0.3-1.2-1.1-1.2-1.9c0-0.3-0.2-0.5-0.4-0.5
	c-0.6-0.1-1.3-0.1-1.9,0c-0.2,0-0.4,0.2-0.4,0.5c0,0.8-0.4,1.5-1.2,1.8c-0.7,0.3-1.6,0.1-2.1-0.5c-0.2-0.2-0.5-0.2-0.7,0
	c-0.5,0.4-1,0.9-1.4,1.4c-0.2,0.2-0.2,0.5,0,0.7c0.6,0.5,0.8,1.4,0.5,2.2c-0.3,0.7-1.1,1.2-1.9,1.2c-0.3,0-0.5,0.2-0.5,0.4
	c-0.1,0.7-0.1,1.3,0,2c0.1,0.3,0.3,0.4,0.6,0.4c0.8,0,1.5,0.5,1.8,1.2c0.3,0.7,0.1,1.6-0.5,2.1c-0.2,0.2-0.2,0.5,0,0.7
	c0.4,0.5,0.9,1,1.4,1.4c0.2,0.2,0.5,0.2,0.7,0c0.6-0.6,1.4-0.8,2.1-0.5c0.7,0.3,1.2,1.1,1.2,1.9c0,0.3,0.2,0.5,0.4,0.5
	c0.6,0.1,1.3,0.1,1.9,0c0.2,0,0.4-0.2,0.4-0.5c0-0.8,0.4-1.5,1.2-1.8c0.7-0.3,1.6-0.1,2.1,0.5c0.2,0.2,0.5,0.2,0.7,0
	c0.5-0.4,1-0.9,1.4-1.4c0.2-0.2,0.2-0.5,0-0.7c-0.8-0.7-0.8-1.9-0.1-2.7c0.4-0.4,0.9-0.6,1.4-0.6h0.1c0.3,0,0.5-0.2,0.5-0.4
	C-242,392.4-242,391.7-242,391z M-250.6,395.5c-1.9,0-3.4-1.5-3.4-3.4c0-1.9,1.5-3.4,3.4-3.4c1.9,0,3.4,1.5,3.4,3.4
	C-247.2,393.9-248.7,395.5-250.6,395.5L-250.6,395.5z"/>
<circle class="st2" cx="-266.9" cy="419.9" r="1.9"/>
<path class="st2" d="M-251.5,413.4h-30.7v-33.7h32.5v-7.6c0-3.1-2.5-5.7-5.7-5.7h-23c-3.1,0-5.7,2.5-5.7,5.7v48.8
	c0,3.1,2.5,5.7,5.7,5.7h23c3.1,0,5.7-2.5,5.7-5.7v-16.3h-1.8L-251.5,413.4L-251.5,413.4z M-282.2,377.9v-5.7c0-2.1,1.7-3.9,3.9-3.9
	h23c2.1,0,3.9,1.7,3.9,3.9v5.7H-282.2L-282.2,377.9z M-251.5,420.9c0,2.1-1.7,3.9-3.9,3.9h-23c-2.1,0-3.9-1.7-3.9-3.9v-5.8h30.7
	V420.9z"/>
</svg>
