<?xml version="1.0" encoding="utf-8"?>
<!-- Generator: Adobe Illustrator 19.0.1, SVG Export Plug-In . SVG Version: 6.00 Build 0)  -->
<svg version="1.1" id="Слой_1" xmlns="http://www.w3.org/2000/svg" xmlns:xlink="http://www.w3.org/1999/xlink" x="0px" y="0px"
	 viewBox="-278 370 54 54" style="enable-background:new -278 370 54 54;" xml:space="preserve">
<style type="text/css">
	.st0{fill:#FFFFFF;}
	.st1{fill:#FFDA44;}
</style>
<title>serv-icon</title>
<path class="st0" d="M-246.5,424h-9c-0.5,0-0.9-0.4-0.9-0.9v0v-6.8l-1.1-0.4c-1.1-0.4-2.3-0.8-3.4-1.3l-4.8,4.7
	c-0.3,0.3-0.9,0.3-1.2,0c0,0,0,0,0,0l-6.4-6.4c-0.3-0.3-0.3-0.9,0-1.2c0,0,0,0,0,0l4.8-4.8c-1-2-1.6-4.1-1.9-6.3h-6.6
	c-0.5,0-0.9-0.4-0.9-0.9l0,0v-7.2c0-0.5,0.4-0.9,0.9-0.9l0,0h6.7c0.5-1.6,1.1-3.1,1.9-4.5l-4.7-4.7c-0.3-0.3-0.3-0.9,0-1.2
	c0,0,0,0,0,0l6.4-6.4c0.3-0.3,0.9-0.3,1.2,0c0,0,0,0,0,0l4.7,4.7c1.4-0.8,3-1.4,4.5-1.9v-6.7c0-0.5,0.4-0.9,0.9-0.9l0,0h9
	c0.5,0,0.9,0.4,0.9,0.9v0v7.4h-1.8v-6.5h-7.2v6.5c0,0.4-0.3,0.8-0.7,0.9c-1.8,0.5-3.6,1.2-5.3,2.2c-0.3,0.2-0.8,0.2-1.1-0.1
	l-4.6-4.6l-5.2,5.2l4.6,4.6c0.3,0.3,0.3,0.7,0.1,1.1c-0.9,1.7-1.7,3.4-2.2,5.3c-0.1,0.4-0.4,0.7-0.9,0.7h-6.5v5.4h6.5
	c0.4,0,0.8,0.3,0.9,0.8c0.3,2.4,1,4.8,2.2,7c0.2,0.3,0.2,0.8-0.1,1.1l-4.6,4.7l5.2,5.2l4.6-4.6c0.3-0.3,0.7-0.3,1.1-0.1
	c1.2,0.6,2.4,1.1,3.6,1.5c0.6,0.2,1.3,0.4,1.9,0.7c0.3,0.2,0.5,0.5,0.5,0.8v6.5h7.2v-6.5c0-0.3,0.2-0.6,0.5-0.8
	c0.6-0.3,1.2-0.5,1.9-0.7c1.2-0.4,2.5-0.9,3.6-1.5c0.3-0.2,0.8-0.2,1.1,0.1l4.6,4.6l5.2-5.2l-4.6-4.6c-0.3-0.3-0.3-0.7-0.1-1.1
	c1.4-2.1,2.1-4.5,2.2-7c0-0.5,0.4-0.8,0.9-0.8h6.5v-5.4h-6.5c-0.4,0-0.8-0.3-0.9-0.7c-0.5-1.9-1.2-3.6-2.2-5.3
	c-0.2-0.3-0.2-0.8,0.1-1.1l4.6-4.6l-5.2-5.2l-11.1,11.8c-0.3,0.3-0.7,0.4-1,0.2h-0.1c-1-0.4-2-0.6-3-0.5c-5,0-9,4-9,9c0,5,4,9,9,9
	c5,0,9-4,9-9c0-1.9-0.6-3.7-1.6-5.2l1.5-1c3.4,4.9,2.3,11.6-2.6,15c-4.9,3.4-11.6,2.3-15-2.6c-3.4-4.9-2.3-11.6,2.6-15
	c1.8-1.3,4-2,6.2-2c1.1,0,2.3,0.1,3.3,0.5l11.3-12c0.2-0.2,0.4-0.3,0.6-0.3c0.2,0,0.5,0.1,0.6,0.3l6.4,6.4c0.3,0.3,0.3,0.9,0,1.2
	c0,0,0,0,0,0l-4.8,4.6c0.8,1.4,1.4,2.9,1.9,4.5h6.7c0.5,0,0.9,0.4,0.9,0.9l0,0v7.2c0,0.5-0.4,0.9-0.9,0.9l0,0h-6.6
	c-0.1,2.2-0.8,4.4-2,6.3l4.7,4.7c0.3,0.3,0.3,0.9,0,1.2c0,0,0,0,0,0l-6.4,6.4c-0.3,0.3-0.9,0.3-1.2,0c0,0,0,0,0,0l-4.8-4.7
	c-1.1,0.5-2.2,1-3.3,1.3l-1.2,0.4v6.8C-245.7,423.6-246,424-246.5,424z"/>
<circle class="st1" cx="-250.7" cy="397" r="5.5"/>
</svg>
